<svg width="12" height="11" xmlns="http://www.w3.org/2000/svg">
  <path d="M11.2032 5.9892s-.2305.0013-.3034 0c-.6025-.0104-1.8074 0-1.8074 0-.0589 0-.109.0464-.109.101l.0118 3.6427c0 .7368-.5527 1.2468-1.089 1.2468h-3.755c-.6093 0-1.1442-.5245-1.1442-1.2468l-.034-3.6428c0-.0545-.0502-.1009-.1091-.1009l-1.8048.0353c-.36 0-.4612-.2906-.4983-.3713-.036-.0817-.0938-.2966.1615-.5316L5.5718.5826c.2978-.2753.7822-.2753 1.08 0l4.8258 4.539c.2542.235.1975.4499.1615.5316-.0371.0807-.0759.336-.436.336z" fill="#747A84" fill-rule="evenodd" opacity=".9"/>
</svg>
